<svg xmlns="http://www.w3.org/2000/svg" width="34.068" height="21.021" viewBox="0 0 34.068 21.021">
  <path id="icons8-behance" d="M1,6.75V27.771H11.155c.941,0,7.421-.191,7.421-6.107a5.177,5.177,0,0,0-3.835-5.326,4.523,4.523,0,0,0,2.841-4.367c0-1.589-.226-5.22-6.711-5.22ZM24.151,8.7V10.62H32V8.7ZM5.616,10.336H9.948c.408,0,3.16-.217,3.16,2.415A2.478,2.478,0,0,1,10.3,15.236H5.616ZM28.27,12.36c-5.934,0-7.173,5.153-7.173,7.386,0,6.627,5.433,7.386,7.173,7.386,4.691,0,6.023-3.036,6.569-4.722H31.43a3.28,3.28,0,0,1-3.018,1.846c-3.169,0-3.444-2.477-3.444-3.586H35.052C35.256,16.834,33.578,12.36,28.27,12.36Zm-.106,2.876a2.852,2.852,0,0,1,2.166.781,3.837,3.837,0,0,1,.888,2.237H24.968a4.521,4.521,0,0,1,.177-.923,2.722,2.722,0,0,1,.5-.994,3.163,3.163,0,0,1,.994-.781A3.269,3.269,0,0,1,28.163,15.236ZM5.616,18.4h5.007c.994,0,3.338.155,3.338,3.018,0,2.774-2.952,2.77-3.409,2.77H5.616Z" transform="translate(-1 -6.75)" fill="#fff"/>
</svg>
