<svg xmlns="http://www.w3.org/2000/svg" width="23.235" height="23.235" viewBox="0 0 23.235 23.235">
  <path id="icons8-instagram" d="M6.6,0A6.612,6.612,0,0,0,0,6.6v9.537a6.612,6.612,0,0,0,6.6,6.6h9.537a6.612,6.612,0,0,0,6.6-6.6V6.6a6.612,6.612,0,0,0-6.6-6.6Zm0,1.749h9.537a4.836,4.836,0,0,1,4.85,4.85v9.537a4.836,4.836,0,0,1-4.85,4.85H6.6a4.836,4.836,0,0,1-4.85-4.85V6.6A4.836,4.836,0,0,1,6.6,1.749ZM17.926,3.5a1.312,1.312,0,1,0,1.312,1.312A1.312,1.312,0,0,0,17.926,3.5ZM11.367,5.247a6.121,6.121,0,1,0,6.121,6.121A6.133,6.133,0,0,0,11.367,5.247Zm0,1.749A4.372,4.372,0,1,1,7,11.367,4.359,4.359,0,0,1,11.367,7Z" transform="translate(0.25 0.25)" fill="#fff" stroke="#fff" stroke-width="0.5"/>
</svg>
