<svg id="Слой_2" data-name="Слой 2" xmlns="http://www.w3.org/2000/svg" width="36.53" height="21.05" viewBox="0 0 36.53 21.05">
  <g id="Подвал" transform="translate(0 0)">
    <g id="VK">
      <path id="Контур_1" data-name="Контур 1" d="M22.28,30.183h2.068a1.923,1.923,0,0,0,.993-.434,1.654,1.654,0,0,0,.31-.972s0-2.937,1.3-3.35,3.082,2.833,4.9,4.136a3.5,3.5,0,0,0,2.44.745h4.881s2.544-.165,1.344-2.172A16.193,16.193,0,0,0,36.881,24c-3.061-2.854-2.647-2.378,1.034-7.3,2.254-3,3.144-4.819,2.875-5.6s-1.965-.745-1.965-.745h-5.5a1.158,1.158,0,0,0-.7.124,1.386,1.386,0,0,0-.5.579,31.292,31.292,0,0,1-2.068,4.3c-2.44,4.136-3.433,4.384-3.826,4.136-.931-.6-.7-2.42-.7-3.7,0-4.033.62-5.708-1.2-6.2a9.265,9.265,0,0,0-2.565-.269,11.83,11.83,0,0,0-4.55.476c-.641.31-1.117.993-.827,1.034a2.4,2.4,0,0,1,1.634.807,5.315,5.315,0,0,1,.538,2.482s.331,4.757-.765,5.336c-.724.414-1.758-.414-3.929-4.136a35.16,35.16,0,0,1-2.068-4.136,1.613,1.613,0,0,0-.455-.62,2.378,2.378,0,0,0-.848-.331h-5s-.786,0-1.055.372a1.037,1.037,0,0,0,0,.931S8.568,21.1,13.139,26a12.574,12.574,0,0,0,9.079,4.136Z" transform="translate(-4.312 -9.267)" fill="#f2faff" fill-rule="evenodd"/>
    </g>
  </g>
</svg>
